<?xml version="1.0" encoding="UTF-8"?><svg id="Layer_2" xmlns="http://www.w3.org/2000/svg" viewBox="0 0 41.99 15.81"><defs><style>.cls-1{fill:#30a450;}</style></defs><g id="index_wireframe"><path class="cls-1" d="M.17,8.03c.47,1.97,1.72,3.16,2.35,3.65,1.19,.95,2.4,1.24,3.11,1.41,1.31,.31,2.37,.25,2.86,.21,1.56-.14,2.66-.67,3.55-1.1,.77-.37,1.91-.92,3.04-1.98,.65-.61,1.35-1.17,2.01-1.78,.43-.41,.82-.78,1.01-.68,.18,.1,.05,.53,.01,1.03-.07,.96,.23,1.67,.64,2.66,.26,.63,.62,1.49,1.46,2.35,.79,.81,1.6,1.2,2.01,1.39,.48,.22,1.12,.52,2.01,.59,1.08,.09,1.9-.2,2.49-.41,1.08-.38,1.73-.89,1.88-1.01,.35-.28,.75-.6,1.04-1.17,.27-.53,.31-1,.32-1.13,.04-.61-.13-1.07-.21-1.27-.09-.24-.31-.74-.81-1.18-.3-.31-.67-.57-1.1-.72-1.3-.44-2.7,.15-3.35,1.33-.02,.03-.05,.05-.06,.09-.05,.09-.07,.18-.1,.27-.01,.04-.03,.07-.05,.1,0,.02,0,.04-.02,.07,0,.02-.01,.05-.02,.07-.27,.94-.04,1.9,.54,2.59,0,.05,0,.1-.03,.14-.23,.3-1.27-.1-1.83-.41-.22-.12-.9-.51-1.5-1.3-.13-.18-.54-.74-.79-1.58-.13-.42-.33-1.11-.2-2.01,.06-.44,.25-1.23,.85-1.97,.45-.55,.9-.8,1.79-1.29,1.14-.62,2.12-.91,2.49-1.01,1.37-.38,2.45-.4,2.68-.4,.39,0,1.47,0,2.79,.35,.46,.12,1,.34,2.06,.76,.68,.27,1.39,.55,2.31,.99,.33,.15,1.14,.53,2.17,1.09,.81,.44,.97,.56,2,1.15,1.57,.89,2.35,1.33,2.4,1.27,.14-.18-2.55-2.78-6.13-4.86-1.43-.83-2.78-1.6-4.79-2.11-2.48-.62-4.45-.46-4.94-.42-2.59,.24-4.44,1.16-5.5,1.7-2.34,1.19-4.39,2.92-5.46,4-.17,.18-.57,.59-1.18,1.1-.51,.42-1.35,1.11-2.57,1.71-.74,.36-1.55,.75-2.7,.9-.48,.06-1.44,.17-2.61-.17-1.24-.35-2.01-1.01-2.18-1.15-.75-.64-1.14-1.34-1.31-1.66-.25-.5-.62-1.22-.56-2.2,.06-.95,.48-1.62,.72-1.99,.57-.86,1.26-1.3,1.5-1.44,.77-.44,1.77-.72,1.92-.47,0,.01,0,.03,0,.04-.19,.25-.36,.52-.46,.84-.5,1.49,.28,3.09,1.74,3.59,1.04,.35,2.15,.04,2.88-.71,.03-.03,.07-.07,.1-.09,0,0,.01-.01,.02-.02,.22-.19,.45-.44,.63-.79,.1-.18,.39-.81,.29-1.61-.13-1.06-.87-1.7-1.32-2.09C8.98,.35,7.76,.15,7.2,.07c-1.86-.28-3.29,.37-3.56,.49C1.93,1.37,1.13,2.73,.86,3.19-.42,5.43,.08,7.65,.17,8.03Z"/></g></svg>