<?xml version="1.0" encoding="UTF-8"?><svg id="Layer_2" xmlns="http://www.w3.org/2000/svg" viewBox="0 0 41.93 16.17"><defs><style>.cls-1{fill:#30a450;}</style></defs><g id="index_wireframe"><path class="cls-1" d="M41.79,7.91c-.43,1.98-1.66,3.19-2.28,3.7-1.17,.98-2.38,1.29-3.09,1.47-1.3,.34-2.37,.3-2.86,.27-1.56-.11-2.67-.62-3.58-1.03-.77-.35-1.92-.88-3.08-1.92-.66-.6-1.38-1.14-2.04-1.74-.44-.4-.83-.77-1.02-.66-.17,.1-.04,.53,0,1.03,.09,.96-.2,1.68-.59,2.67-.25,.64-.59,1.51-1.41,2.38-.77,.82-1.58,1.23-1.98,1.43-.48,.23-1.11,.54-2,.63-1.08,.11-1.9-.16-2.5-.36-1.08-.36-1.75-.85-1.9-.97-.36-.28-.76-.59-1.06-1.15-.28-.52-.33-.99-.34-1.13-.05-.61,.11-1.07,.19-1.28,.09-.25,.29-.75,.78-1.2,.29-.32,.65-.58,1.09-.74,1.29-.47,2.7,.1,3.38,1.26,.02,.03,.05,.05,.07,.09,.05,.09,.07,.18,.1,.27,.01,.04,.04,.07,.05,.1,0,.02,0,.04,.02,.07,0,.02,.01,.05,.02,.07,.28,.93,.07,1.89-.49,2.6,0,.05,0,.1,.03,.14,.24,.3,1.27-.13,1.82-.44,.21-.12,.89-.52,1.47-1.33,.13-.18,.52-.75,.76-1.6,.12-.42,.31-1.12,.16-2.01-.07-.44-.28-1.23-.89-1.95-.46-.54-.91-.78-1.82-1.25-1.16-.6-2.13-.87-2.51-.96-1.38-.35-2.46-.35-2.68-.35-.39,0-1.47,.03-2.78,.41-.46,.13-.99,.36-2.05,.8-.67,.28-1.37,.58-2.29,1.03-.32,.16-1.12,.56-2.14,1.14-.8,.46-.95,.58-1.98,1.19C.83,9.52,.06,9.98,0,9.91c-.14-.18,2.5-2.83,6.03-4.98,1.41-.86,2.75-1.66,4.75-2.2,2.47-.67,4.44-.55,4.93-.52,2.59,.19,4.46,1.07,5.53,1.59,2.36,1.14,4.45,2.84,5.53,3.89,.18,.17,.59,.58,1.2,1.07,.52,.41,1.37,1.09,2.61,1.66,.75,.35,1.56,.72,2.72,.84,.48,.05,1.44,.14,2.6-.22,1.23-.38,1.99-1.05,2.16-1.19,.74-.66,1.11-1.36,1.27-1.69,.24-.5,.59-1.23,.52-2.21-.07-.95-.51-1.61-.76-1.97-.58-.85-1.29-1.27-1.53-1.41-.77-.43-1.79-.68-1.93-.44,0,.01,0,.03,0,.04,.2,.24,.37,.52,.48,.83,.53,1.47-.22,3.1-1.67,3.62-1.04,.37-2.15,.08-2.89-.65-.03-.03-.07-.06-.1-.09,0,0-.01-.01-.02-.02-.23-.19-.46-.43-.64-.77-.1-.18-.41-.8-.32-1.61,.11-1.06,.84-1.72,1.27-2.11,1.08-.98,2.3-1.2,2.85-1.3,1.85-.31,3.29,.3,3.57,.42,1.73,.77,2.56,2.11,2.83,2.57,1.32,2.22,.87,4.45,.79,4.83Z"/></g></svg>